<mxfile host="app.diagrams.net" modified="2023-04-03T10:06:34.414Z" agent="Mozilla/5.0 (Windows NT 10.0; Win64; x64) AppleWebKit/537.36 (KHTML, like Gecko) Chrome/111.0.0.0 Safari/537.36" etag="Ze1k2X2EL0TX6uych-Oe" version="21.1.2" type="device">
  <diagram name="Page-1" id="ROgTLSG3Z0WV3HRCvliY">
    <mxGraphModel dx="1613" dy="716" grid="1" gridSize="10" guides="1" tooltips="1" connect="1" arrows="1" fold="1" page="1" pageScale="1" pageWidth="850" pageHeight="1100" math="0" shadow="0">
      <root>
        <mxCell id="0" />
        <mxCell id="1" parent="0" />
        <mxCell id="JeB-y-CiDUJop3x3We5z-1" value="problem" style="whiteSpace=wrap;html=1;align=center;fillColor=#66B2FF;" vertex="1" parent="1">
          <mxGeometry x="950" y="820" width="100" height="40" as="geometry" />
        </mxCell>
        <mxCell id="JeB-y-CiDUJop3x3We5z-2" value="vehicle" style="whiteSpace=wrap;html=1;align=center;fillColor=#66B2FF;" vertex="1" parent="1">
          <mxGeometry x="720" y="700" width="100" height="40" as="geometry" />
        </mxCell>
        <mxCell id="JeB-y-CiDUJop3x3We5z-3" value="service_ticket" style="whiteSpace=wrap;html=1;align=center;fillColor=#66B2FF;" vertex="1" parent="1">
          <mxGeometry x="310" y="700" width="100" height="40" as="geometry" />
        </mxCell>
        <mxCell id="JeB-y-CiDUJop3x3We5z-27" style="edgeStyle=orthogonalEdgeStyle;rounded=0;orthogonalLoop=1;jettySize=auto;html=1;exitX=0.5;exitY=0;exitDx=0;exitDy=0;entryX=0.5;entryY=1;entryDx=0;entryDy=0;endArrow=block;endFill=0;" edge="1" parent="1" source="JeB-y-CiDUJop3x3We5z-4" target="JeB-y-CiDUJop3x3We5z-6">
          <mxGeometry relative="1" as="geometry" />
        </mxCell>
        <mxCell id="JeB-y-CiDUJop3x3We5z-4" value="admin_staff" style="whiteSpace=wrap;html=1;align=center;fillColor=#66B2FF;" vertex="1" parent="1">
          <mxGeometry x="1270" y="390" width="130" height="40" as="geometry" />
        </mxCell>
        <mxCell id="JeB-y-CiDUJop3x3We5z-28" style="edgeStyle=orthogonalEdgeStyle;rounded=0;orthogonalLoop=1;jettySize=auto;html=1;exitX=0.5;exitY=0;exitDx=0;exitDy=0;entryX=0.5;entryY=1;entryDx=0;entryDy=0;shadow=0;endArrow=block;endFill=0;" edge="1" parent="1" source="JeB-y-CiDUJop3x3We5z-5" target="JeB-y-CiDUJop3x3We5z-6">
          <mxGeometry relative="1" as="geometry">
            <mxPoint x="1029.9999999999995" y="290" as="targetPoint" />
          </mxGeometry>
        </mxCell>
        <mxCell id="JeB-y-CiDUJop3x3We5z-5" value="mechanic" style="whiteSpace=wrap;html=1;align=center;fillColor=#66B2FF;" vertex="1" parent="1">
          <mxGeometry x="950" y="390" width="100" height="40" as="geometry" />
        </mxCell>
        <mxCell id="JeB-y-CiDUJop3x3We5z-6" value="employee" style="whiteSpace=wrap;html=1;align=center;fillColor=#66B2FF;" vertex="1" parent="1">
          <mxGeometry x="1060" y="160" width="100" height="40" as="geometry" />
        </mxCell>
        <mxCell id="JeB-y-CiDUJop3x3We5z-7" value="repair_centre" style="whiteSpace=wrap;html=1;align=center;fillColor=#66B2FF;" vertex="1" parent="1">
          <mxGeometry x="660" y="160" width="100" height="40" as="geometry" />
        </mxCell>
        <mxCell id="JeB-y-CiDUJop3x3We5z-8" value="repair_bay" style="whiteSpace=wrap;html=1;align=center;fillColor=#66B2FF;" vertex="1" parent="1">
          <mxGeometry x="310" y="390" width="100" height="40" as="geometry" />
        </mxCell>
        <mxCell id="JeB-y-CiDUJop3x3We5z-10" value="works" style="shape=rhombus;perimeter=rhombusPerimeter;whiteSpace=wrap;html=1;align=center;fillColor=#FFB366;" vertex="1" parent="1">
          <mxGeometry x="610" y="380" width="120" height="60" as="geometry" />
        </mxCell>
        <mxCell id="JeB-y-CiDUJop3x3We5z-11" value="services" style="shape=rhombus;perimeter=rhombusPerimeter;whiteSpace=wrap;html=1;align=center;fillColor=#FFB366;" vertex="1" parent="1">
          <mxGeometry x="300" y="540" width="120" height="60" as="geometry" />
        </mxCell>
        <mxCell id="JeB-y-CiDUJop3x3We5z-12" value="addresses" style="shape=rhombus;perimeter=rhombusPerimeter;whiteSpace=wrap;html=1;align=center;fillColor=#FFB366;" vertex="1" parent="1">
          <mxGeometry x="300" y="810" width="120" height="60" as="geometry" />
        </mxCell>
        <mxCell id="JeB-y-CiDUJop3x3We5z-14" value="employs" style="shape=rhombus;perimeter=rhombusPerimeter;whiteSpace=wrap;html=1;align=center;fillColor=#FFB366;" vertex="1" parent="1">
          <mxGeometry x="860" y="150" width="120" height="60" as="geometry" />
        </mxCell>
        <mxCell id="JeB-y-CiDUJop3x3We5z-15" value="owns" style="shape=rhombus;perimeter=rhombusPerimeter;whiteSpace=wrap;html=1;align=center;fillColor=#FFB366;" vertex="1" parent="1">
          <mxGeometry x="300" y="150" width="120" height="60" as="geometry" />
        </mxCell>
        <mxCell id="JeB-y-CiDUJop3x3We5z-16" value="belongs" style="shape=rhombus;perimeter=rhombusPerimeter;whiteSpace=wrap;html=1;align=center;fillColor=#FFB366;" vertex="1" parent="1">
          <mxGeometry x="510" y="690" width="120" height="60" as="geometry" />
        </mxCell>
        <mxCell id="JeB-y-CiDUJop3x3We5z-30" value="" style="endArrow=none;html=1;rounded=0;entryX=0;entryY=0.5;entryDx=0;entryDy=0;exitX=1;exitY=0.5;exitDx=0;exitDy=0;" edge="1" parent="1" source="JeB-y-CiDUJop3x3We5z-12" target="JeB-y-CiDUJop3x3We5z-1">
          <mxGeometry relative="1" as="geometry">
            <mxPoint x="240" y="600" as="sourcePoint" />
            <mxPoint x="250" y="650" as="targetPoint" />
          </mxGeometry>
        </mxCell>
        <mxCell id="JeB-y-CiDUJop3x3We5z-31" value="1" style="resizable=0;html=1;whiteSpace=wrap;align=right;verticalAlign=bottom;" connectable="0" vertex="1" parent="JeB-y-CiDUJop3x3We5z-30">
          <mxGeometry x="1" relative="1" as="geometry">
            <mxPoint x="-10" y="-10" as="offset" />
          </mxGeometry>
        </mxCell>
        <mxCell id="JeB-y-CiDUJop3x3We5z-32" value="" style="endArrow=none;html=1;rounded=0;exitX=0.5;exitY=0;exitDx=0;exitDy=0;entryX=0.5;entryY=1;entryDx=0;entryDy=0;" edge="1" parent="1" source="JeB-y-CiDUJop3x3We5z-12" target="JeB-y-CiDUJop3x3We5z-3">
          <mxGeometry relative="1" as="geometry">
            <mxPoint x="370" y="880" as="sourcePoint" />
            <mxPoint x="420" y="770" as="targetPoint" />
          </mxGeometry>
        </mxCell>
        <mxCell id="JeB-y-CiDUJop3x3We5z-33" value="1" style="resizable=0;html=1;whiteSpace=wrap;align=right;verticalAlign=bottom;" connectable="0" vertex="1" parent="JeB-y-CiDUJop3x3We5z-32">
          <mxGeometry x="1" relative="1" as="geometry">
            <mxPoint x="-10" y="30" as="offset" />
          </mxGeometry>
        </mxCell>
        <mxCell id="JeB-y-CiDUJop3x3We5z-34" value="" style="endArrow=none;html=1;rounded=0;exitX=1;exitY=0.5;exitDx=0;exitDy=0;entryX=0;entryY=0.5;entryDx=0;entryDy=0;" edge="1" parent="1" source="JeB-y-CiDUJop3x3We5z-16" target="JeB-y-CiDUJop3x3We5z-2">
          <mxGeometry relative="1" as="geometry">
            <mxPoint x="689.9999999999995" y="829.9999999999998" as="sourcePoint" />
            <mxPoint x="780" y="830" as="targetPoint" />
          </mxGeometry>
        </mxCell>
        <mxCell id="JeB-y-CiDUJop3x3We5z-35" value="1" style="resizable=0;html=1;whiteSpace=wrap;align=right;verticalAlign=bottom;" connectable="0" vertex="1" parent="JeB-y-CiDUJop3x3We5z-34">
          <mxGeometry x="1" relative="1" as="geometry">
            <mxPoint x="-20" y="-10" as="offset" />
          </mxGeometry>
        </mxCell>
        <mxCell id="JeB-y-CiDUJop3x3We5z-36" value="" style="endArrow=none;html=1;rounded=0;exitX=1;exitY=0.5;exitDx=0;exitDy=0;entryX=0;entryY=0.5;entryDx=0;entryDy=0;" edge="1" parent="1" source="JeB-y-CiDUJop3x3We5z-3" target="JeB-y-CiDUJop3x3We5z-16">
          <mxGeometry relative="1" as="geometry">
            <mxPoint x="630" y="590" as="sourcePoint" />
            <mxPoint x="569.9999999999995" y="719.9999999999998" as="targetPoint" />
          </mxGeometry>
        </mxCell>
        <mxCell id="JeB-y-CiDUJop3x3We5z-37" value="1...m" style="resizable=0;html=1;whiteSpace=wrap;align=right;verticalAlign=bottom;" connectable="0" vertex="1" parent="JeB-y-CiDUJop3x3We5z-36">
          <mxGeometry x="1" relative="1" as="geometry">
            <mxPoint x="-60" y="-10" as="offset" />
          </mxGeometry>
        </mxCell>
        <mxCell id="JeB-y-CiDUJop3x3We5z-38" value="" style="endArrow=none;html=1;rounded=0;exitX=0.5;exitY=1;exitDx=0;exitDy=0;entryX=0.5;entryY=0;entryDx=0;entryDy=0;" edge="1" parent="1" source="JeB-y-CiDUJop3x3We5z-11" target="JeB-y-CiDUJop3x3We5z-3">
          <mxGeometry relative="1" as="geometry">
            <mxPoint x="520" y="650" as="sourcePoint" />
            <mxPoint x="680" y="650" as="targetPoint" />
          </mxGeometry>
        </mxCell>
        <mxCell id="JeB-y-CiDUJop3x3We5z-39" value="m" style="resizable=0;html=1;whiteSpace=wrap;align=left;verticalAlign=bottom;" connectable="0" vertex="1" parent="JeB-y-CiDUJop3x3We5z-38">
          <mxGeometry x="-1" relative="1" as="geometry">
            <mxPoint x="10" y="90" as="offset" />
          </mxGeometry>
        </mxCell>
        <mxCell id="JeB-y-CiDUJop3x3We5z-42" value="" style="endArrow=none;html=1;rounded=0;exitX=0.5;exitY=0;exitDx=0;exitDy=0;entryX=0.5;entryY=1;entryDx=0;entryDy=0;" edge="1" parent="1" source="JeB-y-CiDUJop3x3We5z-11" target="JeB-y-CiDUJop3x3We5z-8">
          <mxGeometry relative="1" as="geometry">
            <mxPoint x="360" y="530" as="sourcePoint" />
            <mxPoint x="360" y="460" as="targetPoint" />
          </mxGeometry>
        </mxCell>
        <mxCell id="JeB-y-CiDUJop3x3We5z-43" value="1" style="resizable=0;html=1;whiteSpace=wrap;align=right;verticalAlign=bottom;" connectable="0" vertex="1" parent="JeB-y-CiDUJop3x3We5z-42">
          <mxGeometry x="1" relative="1" as="geometry">
            <mxPoint x="-10" y="30" as="offset" />
          </mxGeometry>
        </mxCell>
        <mxCell id="JeB-y-CiDUJop3x3We5z-44" value="" style="endArrow=none;html=1;rounded=0;exitX=0.5;exitY=1;exitDx=0;exitDy=0;entryX=0.5;entryY=0;entryDx=0;entryDy=0;" edge="1" parent="1" source="JeB-y-CiDUJop3x3We5z-15" target="JeB-y-CiDUJop3x3We5z-8">
          <mxGeometry relative="1" as="geometry">
            <mxPoint x="150" y="380" as="sourcePoint" />
            <mxPoint x="150" y="480" as="targetPoint" />
          </mxGeometry>
        </mxCell>
        <mxCell id="JeB-y-CiDUJop3x3We5z-45" value="m" style="resizable=0;html=1;whiteSpace=wrap;align=left;verticalAlign=bottom;" connectable="0" vertex="1" parent="JeB-y-CiDUJop3x3We5z-44">
          <mxGeometry x="-1" relative="1" as="geometry">
            <mxPoint x="-30" y="170" as="offset" />
          </mxGeometry>
        </mxCell>
        <mxCell id="JeB-y-CiDUJop3x3We5z-46" value="" style="endArrow=none;html=1;rounded=0;exitX=1;exitY=0.5;exitDx=0;exitDy=0;entryX=0;entryY=0.5;entryDx=0;entryDy=0;" edge="1" parent="1" source="JeB-y-CiDUJop3x3We5z-14" target="JeB-y-CiDUJop3x3We5z-6">
          <mxGeometry relative="1" as="geometry">
            <mxPoint x="540" y="250" as="sourcePoint" />
            <mxPoint x="1060" y="180" as="targetPoint" />
          </mxGeometry>
        </mxCell>
        <mxCell id="JeB-y-CiDUJop3x3We5z-47" value="m" style="resizable=0;html=1;whiteSpace=wrap;align=left;verticalAlign=bottom;" connectable="0" vertex="1" parent="JeB-y-CiDUJop3x3We5z-46">
          <mxGeometry x="-1" relative="1" as="geometry">
            <mxPoint x="60" y="-10" as="offset" />
          </mxGeometry>
        </mxCell>
        <mxCell id="JeB-y-CiDUJop3x3We5z-48" value="" style="endArrow=none;html=1;rounded=0;exitX=1;exitY=0.5;exitDx=0;exitDy=0;entryX=0;entryY=0.5;entryDx=0;entryDy=0;" edge="1" parent="1" source="JeB-y-CiDUJop3x3We5z-15" target="JeB-y-CiDUJop3x3We5z-7">
          <mxGeometry relative="1" as="geometry">
            <mxPoint x="550" y="250" as="sourcePoint" />
            <mxPoint x="630" y="250" as="targetPoint" />
          </mxGeometry>
        </mxCell>
        <mxCell id="JeB-y-CiDUJop3x3We5z-49" value="1" style="resizable=0;html=1;whiteSpace=wrap;align=right;verticalAlign=bottom;" connectable="0" vertex="1" parent="JeB-y-CiDUJop3x3We5z-48">
          <mxGeometry x="1" relative="1" as="geometry">
            <mxPoint x="-10" y="-10" as="offset" />
          </mxGeometry>
        </mxCell>
        <mxCell id="JeB-y-CiDUJop3x3We5z-50" value="" style="endArrow=none;html=1;rounded=0;exitX=1;exitY=0.5;exitDx=0;exitDy=0;entryX=0;entryY=0.5;entryDx=0;entryDy=0;" edge="1" parent="1" source="JeB-y-CiDUJop3x3We5z-7" target="JeB-y-CiDUJop3x3We5z-14">
          <mxGeometry relative="1" as="geometry">
            <mxPoint x="480" y="300" as="sourcePoint" />
            <mxPoint x="560" y="300" as="targetPoint" />
          </mxGeometry>
        </mxCell>
        <mxCell id="JeB-y-CiDUJop3x3We5z-51" value="1" style="resizable=0;html=1;whiteSpace=wrap;align=right;verticalAlign=bottom;" connectable="0" vertex="1" parent="JeB-y-CiDUJop3x3We5z-50">
          <mxGeometry x="1" relative="1" as="geometry">
            <mxPoint x="-80" y="-10" as="offset" />
          </mxGeometry>
        </mxCell>
        <mxCell id="JeB-y-CiDUJop3x3We5z-54" value="solves" style="shape=rhombus;perimeter=rhombusPerimeter;whiteSpace=wrap;html=1;align=center;fillColor=#FFB366;" vertex="1" parent="1">
          <mxGeometry x="940" y="590" width="120" height="60" as="geometry" />
        </mxCell>
        <mxCell id="JeB-y-CiDUJop3x3We5z-55" value="" style="endArrow=none;html=1;rounded=0;entryX=0.5;entryY=1;entryDx=0;entryDy=0;" edge="1" parent="1" source="JeB-y-CiDUJop3x3We5z-54" target="JeB-y-CiDUJop3x3We5z-5">
          <mxGeometry relative="1" as="geometry">
            <mxPoint x="1109.4099999999999" y="560" as="sourcePoint" />
            <mxPoint x="1109.4099999999999" y="450" as="targetPoint" />
          </mxGeometry>
        </mxCell>
        <mxCell id="JeB-y-CiDUJop3x3We5z-56" value="1" style="resizable=0;html=1;whiteSpace=wrap;align=right;verticalAlign=bottom;" connectable="0" vertex="1" parent="JeB-y-CiDUJop3x3We5z-55">
          <mxGeometry x="1" relative="1" as="geometry">
            <mxPoint x="-10" y="30" as="offset" />
          </mxGeometry>
        </mxCell>
        <mxCell id="JeB-y-CiDUJop3x3We5z-57" value="" style="endArrow=none;html=1;rounded=0;exitX=0.5;exitY=1;exitDx=0;exitDy=0;" edge="1" parent="1" source="JeB-y-CiDUJop3x3We5z-54" target="JeB-y-CiDUJop3x3We5z-1">
          <mxGeometry relative="1" as="geometry">
            <mxPoint x="250" y="600" as="sourcePoint" />
            <mxPoint x="250" y="700" as="targetPoint" />
          </mxGeometry>
        </mxCell>
        <mxCell id="JeB-y-CiDUJop3x3We5z-58" value="m" style="resizable=0;html=1;whiteSpace=wrap;align=left;verticalAlign=bottom;" connectable="0" vertex="1" parent="JeB-y-CiDUJop3x3We5z-57">
          <mxGeometry x="-1" relative="1" as="geometry">
            <mxPoint x="10" y="160" as="offset" />
          </mxGeometry>
        </mxCell>
        <mxCell id="JeB-y-CiDUJop3x3We5z-59" value="" style="endArrow=none;html=1;rounded=0;exitX=1;exitY=0.5;exitDx=0;exitDy=0;entryX=0;entryY=0.5;entryDx=0;entryDy=0;" edge="1" parent="1" source="JeB-y-CiDUJop3x3We5z-10" target="JeB-y-CiDUJop3x3We5z-5">
          <mxGeometry relative="1" as="geometry">
            <mxPoint x="750" y="420" as="sourcePoint" />
            <mxPoint x="830" y="420" as="targetPoint" />
          </mxGeometry>
        </mxCell>
        <mxCell id="JeB-y-CiDUJop3x3We5z-60" value="m" style="resizable=0;html=1;whiteSpace=wrap;align=left;verticalAlign=bottom;" connectable="0" vertex="1" parent="JeB-y-CiDUJop3x3We5z-59">
          <mxGeometry x="-1" relative="1" as="geometry">
            <mxPoint x="190" y="-10" as="offset" />
          </mxGeometry>
        </mxCell>
        <mxCell id="JeB-y-CiDUJop3x3We5z-61" value="" style="endArrow=none;html=1;rounded=0;exitX=0;exitY=0.5;exitDx=0;exitDy=0;entryX=1;entryY=0.5;entryDx=0;entryDy=0;" edge="1" parent="1" source="JeB-y-CiDUJop3x3We5z-10" target="JeB-y-CiDUJop3x3We5z-8">
          <mxGeometry relative="1" as="geometry">
            <mxPoint x="410" y="470" as="sourcePoint" />
            <mxPoint x="630" y="470" as="targetPoint" />
          </mxGeometry>
        </mxCell>
        <mxCell id="JeB-y-CiDUJop3x3We5z-62" value="m" style="resizable=0;html=1;whiteSpace=wrap;align=left;verticalAlign=bottom;" connectable="0" vertex="1" parent="JeB-y-CiDUJop3x3We5z-61">
          <mxGeometry x="-1" relative="1" as="geometry">
            <mxPoint x="-180" y="-10" as="offset" />
          </mxGeometry>
        </mxCell>
        <mxCell id="JeB-y-CiDUJop3x3We5z-64" value="employee_salary" style="ellipse;whiteSpace=wrap;html=1;align=center;fillColor=#66FF66;" vertex="1" parent="1">
          <mxGeometry x="1380" y="150" width="100" height="40" as="geometry" />
        </mxCell>
        <mxCell id="JeB-y-CiDUJop3x3We5z-65" value="employee_name" style="ellipse;whiteSpace=wrap;html=1;align=center;fillColor=#66FF66;" vertex="1" parent="1">
          <mxGeometry x="1365" y="80" width="100" height="40" as="geometry" />
        </mxCell>
        <mxCell id="JeB-y-CiDUJop3x3We5z-66" value="&lt;u&gt;employee_id&lt;/u&gt;" style="ellipse;whiteSpace=wrap;html=1;align=center;fillColor=#66FF66;" vertex="1" parent="1">
          <mxGeometry x="1245" y="30" width="100" height="40" as="geometry" />
        </mxCell>
        <mxCell id="JeB-y-CiDUJop3x3We5z-67" value="job_title" style="ellipse;whiteSpace=wrap;html=1;align=center;gradientColor=none;fillColor=#66FF66;" vertex="1" parent="1">
          <mxGeometry x="1465" y="450" width="100" height="40" as="geometry" />
        </mxCell>
        <mxCell id="JeB-y-CiDUJop3x3We5z-68" value="mechanic_rank" style="ellipse;whiteSpace=wrap;html=1;align=center;gradientColor=none;fillColor=#66FF66;" vertex="1" parent="1">
          <mxGeometry x="1110" y="450" width="100" height="40" as="geometry" />
        </mxCell>
        <mxCell id="JeB-y-CiDUJop3x3We5z-71" value="" style="endArrow=none;html=1;rounded=0;exitX=1;exitY=0.25;exitDx=0;exitDy=0;entryX=0;entryY=0.5;entryDx=0;entryDy=0;" edge="1" parent="1" source="JeB-y-CiDUJop3x3We5z-6" target="JeB-y-CiDUJop3x3We5z-65">
          <mxGeometry relative="1" as="geometry">
            <mxPoint x="1265" y="150" as="sourcePoint" />
            <mxPoint x="1135" y="270" as="targetPoint" />
          </mxGeometry>
        </mxCell>
        <mxCell id="JeB-y-CiDUJop3x3We5z-72" value="" style="endArrow=none;html=1;rounded=0;exitX=0;exitY=1;exitDx=0;exitDy=0;entryX=0.5;entryY=0;entryDx=0;entryDy=0;" edge="1" parent="1" source="JeB-y-CiDUJop3x3We5z-66" target="JeB-y-CiDUJop3x3We5z-6">
          <mxGeometry relative="1" as="geometry">
            <mxPoint x="880" y="290" as="sourcePoint" />
            <mxPoint x="1040" y="290" as="targetPoint" />
          </mxGeometry>
        </mxCell>
        <mxCell id="JeB-y-CiDUJop3x3We5z-73" value="" style="endArrow=none;html=1;rounded=0;exitX=1;exitY=0.5;exitDx=0;exitDy=0;entryX=0;entryY=0.5;entryDx=0;entryDy=0;" edge="1" parent="1" source="JeB-y-CiDUJop3x3We5z-6" target="JeB-y-CiDUJop3x3We5z-64">
          <mxGeometry relative="1" as="geometry">
            <mxPoint x="1265" y="170" as="sourcePoint" />
            <mxPoint x="1375" y="110" as="targetPoint" />
          </mxGeometry>
        </mxCell>
        <mxCell id="JeB-y-CiDUJop3x3We5z-75" value="" style="endArrow=none;html=1;rounded=0;exitX=1;exitY=0.75;exitDx=0;exitDy=0;" edge="1" parent="1" source="JeB-y-CiDUJop3x3We5z-4" target="JeB-y-CiDUJop3x3We5z-67">
          <mxGeometry relative="1" as="geometry">
            <mxPoint x="1410" y="400" as="sourcePoint" />
            <mxPoint x="1480" y="370" as="targetPoint" />
          </mxGeometry>
        </mxCell>
        <mxCell id="JeB-y-CiDUJop3x3We5z-77" value="" style="endArrow=none;html=1;rounded=0;exitX=1;exitY=0.75;exitDx=0;exitDy=0;entryX=0;entryY=0;entryDx=0;entryDy=0;" edge="1" parent="1" source="JeB-y-CiDUJop3x3We5z-5" target="JeB-y-CiDUJop3x3We5z-68">
          <mxGeometry relative="1" as="geometry">
            <mxPoint x="1060" y="410" as="sourcePoint" />
            <mxPoint x="1135" y="384" as="targetPoint" />
          </mxGeometry>
        </mxCell>
        <mxCell id="JeB-y-CiDUJop3x3We5z-78" value="hourly_rate" style="ellipse;whiteSpace=wrap;html=1;align=center;fillColor=#66FF66;" vertex="1" parent="1">
          <mxGeometry x="810" y="70" width="100" height="40" as="geometry" />
        </mxCell>
        <mxCell id="JeB-y-CiDUJop3x3We5z-79" value="address" style="ellipse;whiteSpace=wrap;html=1;align=center;fillColor=#66FF66;" vertex="1" parent="1">
          <mxGeometry x="700" y="40" width="100" height="40" as="geometry" />
        </mxCell>
        <mxCell id="JeB-y-CiDUJop3x3We5z-80" value="&lt;u&gt;repair_centre_id&lt;/u&gt;" style="ellipse;whiteSpace=wrap;html=1;align=center;fillColor=#66FF66;" vertex="1" parent="1">
          <mxGeometry x="580" y="50" width="100" height="40" as="geometry" />
        </mxCell>
        <mxCell id="JeB-y-CiDUJop3x3We5z-82" value="problem_id" style="ellipse;whiteSpace=wrap;html=1;align=center;fillColor=#66FF66;" vertex="1" parent="1">
          <mxGeometry x="1100" y="870" width="100" height="40" as="geometry" />
        </mxCell>
        <mxCell id="JeB-y-CiDUJop3x3We5z-86" value="description" style="ellipse;whiteSpace=wrap;html=1;align=center;fillColor=#66FF66;" vertex="1" parent="1">
          <mxGeometry x="1040" y="930" width="100" height="40" as="geometry" />
        </mxCell>
        <mxCell id="JeB-y-CiDUJop3x3We5z-87" value="hour_fix" style="ellipse;whiteSpace=wrap;html=1;align=center;fillColor=#66FF66;" vertex="1" parent="1">
          <mxGeometry x="1100" y="790" width="100" height="40" as="geometry" />
        </mxCell>
        <mxCell id="JeB-y-CiDUJop3x3We5z-88" value="" style="endArrow=none;html=1;rounded=0;exitX=0.5;exitY=1;exitDx=0;exitDy=0;entryX=0.25;entryY=0;entryDx=0;entryDy=0;" edge="1" parent="1" source="JeB-y-CiDUJop3x3We5z-80" target="JeB-y-CiDUJop3x3We5z-7">
          <mxGeometry relative="1" as="geometry">
            <mxPoint x="1165" y="84" as="sourcePoint" />
            <mxPoint x="1120" y="170" as="targetPoint" />
          </mxGeometry>
        </mxCell>
        <mxCell id="JeB-y-CiDUJop3x3We5z-89" value="" style="endArrow=none;html=1;rounded=0;exitX=0;exitY=1;exitDx=0;exitDy=0;entryX=0.75;entryY=0;entryDx=0;entryDy=0;" edge="1" parent="1" source="JeB-y-CiDUJop3x3We5z-78" target="JeB-y-CiDUJop3x3We5z-7">
          <mxGeometry relative="1" as="geometry">
            <mxPoint x="640" y="100" as="sourcePoint" />
            <mxPoint x="695" y="170" as="targetPoint" />
          </mxGeometry>
        </mxCell>
        <mxCell id="JeB-y-CiDUJop3x3We5z-90" value="" style="endArrow=none;html=1;rounded=0;exitX=0.5;exitY=1;exitDx=0;exitDy=0;entryX=0.5;entryY=0;entryDx=0;entryDy=0;" edge="1" parent="1" source="JeB-y-CiDUJop3x3We5z-79" target="JeB-y-CiDUJop3x3We5z-7">
          <mxGeometry relative="1" as="geometry">
            <mxPoint x="650" y="110" as="sourcePoint" />
            <mxPoint x="705" y="180" as="targetPoint" />
          </mxGeometry>
        </mxCell>
        <mxCell id="JeB-y-CiDUJop3x3We5z-91" value="model" style="ellipse;whiteSpace=wrap;html=1;align=center;fillColor=#66FF66;" vertex="1" parent="1">
          <mxGeometry x="720" y="570" width="100" height="40" as="geometry" />
        </mxCell>
        <mxCell id="JeB-y-CiDUJop3x3We5z-94" value="make" style="ellipse;whiteSpace=wrap;html=1;align=center;fillColor=#66FF66;" vertex="1" parent="1">
          <mxGeometry x="810" y="620" width="100" height="40" as="geometry" />
        </mxCell>
        <mxCell id="JeB-y-CiDUJop3x3We5z-95" value="year" style="ellipse;whiteSpace=wrap;html=1;align=center;fillColor=#66FF66;" vertex="1" parent="1">
          <mxGeometry x="850" y="690" width="100" height="40" as="geometry" />
        </mxCell>
        <mxCell id="JeB-y-CiDUJop3x3We5z-96" value="&lt;u&gt;vehicle_id&lt;/u&gt;" style="ellipse;whiteSpace=wrap;html=1;align=center;fillColor=#66FF66;" vertex="1" parent="1">
          <mxGeometry x="620" y="610" width="100" height="40" as="geometry" />
        </mxCell>
        <mxCell id="JeB-y-CiDUJop3x3We5z-97" value="" style="endArrow=none;html=1;rounded=0;exitX=1;exitY=1;exitDx=0;exitDy=0;entryX=0.141;entryY=0.015;entryDx=0;entryDy=0;entryPerimeter=0;" edge="1" parent="1" source="JeB-y-CiDUJop3x3We5z-96" target="JeB-y-CiDUJop3x3We5z-2">
          <mxGeometry relative="1" as="geometry">
            <mxPoint x="750" y="478.82" as="sourcePoint" />
            <mxPoint x="910" y="478.82" as="targetPoint" />
          </mxGeometry>
        </mxCell>
        <mxCell id="JeB-y-CiDUJop3x3We5z-98" value="" style="endArrow=none;html=1;rounded=0;exitX=0;exitY=0.5;exitDx=0;exitDy=0;entryX=1;entryY=0.75;entryDx=0;entryDy=0;" edge="1" parent="1" source="JeB-y-CiDUJop3x3We5z-95" target="JeB-y-CiDUJop3x3We5z-2">
          <mxGeometry relative="1" as="geometry">
            <mxPoint x="715" y="654" as="sourcePoint" />
            <mxPoint x="744" y="711" as="targetPoint" />
          </mxGeometry>
        </mxCell>
        <mxCell id="JeB-y-CiDUJop3x3We5z-99" value="" style="endArrow=none;html=1;rounded=0;exitX=0;exitY=1;exitDx=0;exitDy=0;" edge="1" parent="1" source="JeB-y-CiDUJop3x3We5z-94" target="JeB-y-CiDUJop3x3We5z-2">
          <mxGeometry relative="1" as="geometry">
            <mxPoint x="725" y="664" as="sourcePoint" />
            <mxPoint x="754" y="721" as="targetPoint" />
          </mxGeometry>
        </mxCell>
        <mxCell id="JeB-y-CiDUJop3x3We5z-100" value="" style="endArrow=none;html=1;rounded=0;exitX=0.5;exitY=1;exitDx=0;exitDy=0;entryX=0.5;entryY=0;entryDx=0;entryDy=0;" edge="1" parent="1" source="JeB-y-CiDUJop3x3We5z-91" target="JeB-y-CiDUJop3x3We5z-2">
          <mxGeometry relative="1" as="geometry">
            <mxPoint x="735" y="674" as="sourcePoint" />
            <mxPoint x="764" y="731" as="targetPoint" />
          </mxGeometry>
        </mxCell>
        <mxCell id="JeB-y-CiDUJop3x3We5z-102" value="" style="endArrow=none;html=1;rounded=0;exitX=0;exitY=0.5;exitDx=0;exitDy=0;entryX=1;entryY=0.5;entryDx=0;entryDy=0;" edge="1" parent="1" source="JeB-y-CiDUJop3x3We5z-87" target="JeB-y-CiDUJop3x3We5z-1">
          <mxGeometry relative="1" as="geometry">
            <mxPoint x="1140" y="844" as="sourcePoint" />
            <mxPoint x="1050" y="900" as="targetPoint" />
          </mxGeometry>
        </mxCell>
        <mxCell id="JeB-y-CiDUJop3x3We5z-103" value="" style="endArrow=none;html=1;rounded=0;exitX=0;exitY=0.5;exitDx=0;exitDy=0;entryX=1;entryY=1;entryDx=0;entryDy=0;" edge="1" parent="1" source="JeB-y-CiDUJop3x3We5z-82" target="JeB-y-CiDUJop3x3We5z-1">
          <mxGeometry relative="1" as="geometry">
            <mxPoint x="1130" y="770" as="sourcePoint" />
            <mxPoint x="1060" y="850" as="targetPoint" />
          </mxGeometry>
        </mxCell>
        <mxCell id="JeB-y-CiDUJop3x3We5z-104" value="" style="endArrow=none;html=1;rounded=0;exitX=0;exitY=0;exitDx=0;exitDy=0;entryX=0.5;entryY=1;entryDx=0;entryDy=0;" edge="1" parent="1" source="JeB-y-CiDUJop3x3We5z-86" target="JeB-y-CiDUJop3x3We5z-1">
          <mxGeometry relative="1" as="geometry">
            <mxPoint x="1140" y="860" as="sourcePoint" />
            <mxPoint x="1060" y="870" as="targetPoint" />
          </mxGeometry>
        </mxCell>
        <mxCell id="JeB-y-CiDUJop3x3We5z-107" value="&lt;u&gt;slot_id&lt;/u&gt;" style="ellipse;whiteSpace=wrap;html=1;align=center;fillColor=#66FF66;" vertex="1" parent="1">
          <mxGeometry x="70" y="280" width="100" height="40" as="geometry" />
        </mxCell>
        <mxCell id="JeB-y-CiDUJop3x3We5z-108" value="work_done" style="ellipse;whiteSpace=wrap;html=1;align=center;fillColor=#66FF66;" vertex="1" parent="1">
          <mxGeometry x="30" y="350" width="100" height="40" as="geometry" />
        </mxCell>
        <mxCell id="JeB-y-CiDUJop3x3We5z-109" value="date_of_repair" style="ellipse;whiteSpace=wrap;html=1;align=center;fillColor=#66FF66;" vertex="1" parent="1">
          <mxGeometry x="40" y="420" width="100" height="40" as="geometry" />
        </mxCell>
        <mxCell id="JeB-y-CiDUJop3x3We5z-111" value="&lt;u&gt;service_ticket_id&lt;/u&gt;" style="ellipse;whiteSpace=wrap;html=1;align=center;fillColor=#66FF66;" vertex="1" parent="1">
          <mxGeometry x="90" y="650" width="100" height="40" as="geometry" />
        </mxCell>
        <mxCell id="JeB-y-CiDUJop3x3We5z-112" value="date_in" style="ellipse;whiteSpace=wrap;html=1;align=center;fillColor=#66FF66;" vertex="1" parent="1">
          <mxGeometry x="80" y="730" width="100" height="40" as="geometry" />
        </mxCell>
        <mxCell id="JeB-y-CiDUJop3x3We5z-115" value="" style="endArrow=none;html=1;rounded=0;exitX=1;exitY=0.5;exitDx=0;exitDy=0;entryX=0;entryY=0.25;entryDx=0;entryDy=0;" edge="1" parent="1" source="JeB-y-CiDUJop3x3We5z-111" target="JeB-y-CiDUJop3x3We5z-3">
          <mxGeometry relative="1" as="geometry">
            <mxPoint x="640" y="100" as="sourcePoint" />
            <mxPoint x="695" y="170" as="targetPoint" />
          </mxGeometry>
        </mxCell>
        <mxCell id="JeB-y-CiDUJop3x3We5z-117" value="" style="endArrow=none;html=1;rounded=0;exitX=1;exitY=0.5;exitDx=0;exitDy=0;entryX=0;entryY=0.5;entryDx=0;entryDy=0;" edge="1" parent="1" source="JeB-y-CiDUJop3x3We5z-112" target="JeB-y-CiDUJop3x3We5z-3">
          <mxGeometry relative="1" as="geometry">
            <mxPoint x="210" y="690" as="sourcePoint" />
            <mxPoint x="330" y="730" as="targetPoint" />
          </mxGeometry>
        </mxCell>
        <mxCell id="JeB-y-CiDUJop3x3We5z-119" value="invoice_number" style="ellipse;whiteSpace=wrap;html=1;align=center;fillColor=#66FF66;" vertex="1" parent="1">
          <mxGeometry x="70" y="490" width="100" height="40" as="geometry" />
        </mxCell>
        <mxCell id="JeB-y-CiDUJop3x3We5z-124" value="" style="endArrow=none;html=1;rounded=0;entryX=0;entryY=0.25;entryDx=0;entryDy=0;" edge="1" parent="1" source="JeB-y-CiDUJop3x3We5z-107" target="JeB-y-CiDUJop3x3We5z-8">
          <mxGeometry relative="1" as="geometry">
            <mxPoint x="165" y="264" as="sourcePoint" />
            <mxPoint x="250" y="400" as="targetPoint" />
          </mxGeometry>
        </mxCell>
        <mxCell id="JeB-y-CiDUJop3x3We5z-125" value="" style="endArrow=none;html=1;rounded=0;exitX=1;exitY=0.5;exitDx=0;exitDy=0;entryX=0;entryY=0.5;entryDx=0;entryDy=0;" edge="1" parent="1" source="JeB-y-CiDUJop3x3We5z-108" target="JeB-y-CiDUJop3x3We5z-8">
          <mxGeometry relative="1" as="geometry">
            <mxPoint x="115" y="324" as="sourcePoint" />
            <mxPoint x="280" y="430" as="targetPoint" />
          </mxGeometry>
        </mxCell>
        <mxCell id="JeB-y-CiDUJop3x3We5z-126" value="" style="endArrow=none;html=1;rounded=0;exitX=1;exitY=0.5;exitDx=0;exitDy=0;entryX=0;entryY=0.75;entryDx=0;entryDy=0;" edge="1" parent="1" source="JeB-y-CiDUJop3x3We5z-109" target="JeB-y-CiDUJop3x3We5z-8">
          <mxGeometry relative="1" as="geometry">
            <mxPoint x="130" y="430" as="sourcePoint" />
            <mxPoint x="340" y="480" as="targetPoint" />
          </mxGeometry>
        </mxCell>
        <mxCell id="JeB-y-CiDUJop3x3We5z-128" value="" style="endArrow=none;html=1;rounded=0;exitX=1;exitY=0.5;exitDx=0;exitDy=0;entryX=0;entryY=1;entryDx=0;entryDy=0;" edge="1" parent="1" source="JeB-y-CiDUJop3x3We5z-119" target="JeB-y-CiDUJop3x3We5z-8">
          <mxGeometry relative="1" as="geometry">
            <mxPoint x="145" y="496" as="sourcePoint" />
            <mxPoint x="320" y="440" as="targetPoint" />
          </mxGeometry>
        </mxCell>
      </root>
    </mxGraphModel>
  </diagram>
</mxfile>
